<svg width="437" height="98" viewBox="0 0 437 98" fill="none" xmlns="http://www.w3.org/2000/svg">
<path d="M109.698 80.293H103.561V81.8274H109.698V80.293Z" fill="#F4F1F1"/>
<path d="M138.851 80.293H132.714V81.8274H138.851V80.293Z" fill="#F4F1F1"/>
<path d="M134 80H58V85H134V80Z" fill="#F4F1F1"/>
<path d="M58.1533 80.293H29V84.8961H58.1533V80.293Z" fill="#F4F1F1"/>
<path d="M29.1533 81.7598H0V86.3629H29.1533V81.7598Z" fill="#F4F1F1"/>
<path d="M436.522 77.2242H134.248V81.8274H436.522V77.2242Z" fill="#F4F1F1"/>
<path d="M148.057 91.0337H144.988V92.5681H148.057V91.0337Z" fill="#F4F1F1"/>
<path d="M175.677 91.0337H168.005V92.5681H175.677V91.0337Z" fill="#F4F1F1"/>
<path d="M158.798 86.4305H155.729V87.9649H158.798V86.4305Z" fill="#F4F1F1"/>
<path d="M227.845 86.4305H224.776V87.9649H227.845V86.4305Z" fill="#F4F1F1"/>
<path d="M255.465 84.8962H247.793V86.4306H255.465V84.8962Z" fill="#F4F1F1"/>
<path d="M263.136 87.965H258.533V91.0337H263.136V87.965Z" fill="#F4F1F1"/>
<path d="M295.359 86.4305H292.29V87.9649H295.359V86.4305Z" fill="#F4F1F1"/>
<path d="M341.39 91.0337H335.253V92.5681H341.39V91.0337Z" fill="#F4F1F1"/>
<path d="M410.438 87.965H407.369V91.0337H410.438V87.965Z" fill="#F4F1F1"/>
<path d="M330.649 91.0337H326.046V92.5681H330.649V91.0337Z" fill="#F4F1F1"/>
<path d="M376.681 91.0337H369.009V92.5681H376.681V91.0337Z" fill="#F4F1F1"/>
<path d="M280.196 23.5208H285.469V25.1336H286.503V26.5157H287.534V56.8135H293.611V35.5006H295.446V33.7724H296.365V35.2699H298.427V57.8496H296.592V59.8085H295.446V61.1906H294.07V62.6902H287.879V95.6369H277.902V71.0983H271.366V69.6008H269.76V67.6419H267.925V66.0291H266.205V43.7955H268.499V41.9519H270.22V43.7955H272.397V65.2237H278.017V26.5157H279.048V25.3643H280.196V23.5208Z" fill="#F4F1F1"/>
<path d="M47.0688 88H44V89.5344H47.0688V88Z" fill="#F4F1F1"/>
<path d="M90.0688 87H87V88.5344H90.0688V87Z" fill="#F4F1F1"/>
</svg>
