<svg width="87" height="93" viewBox="0 0 87 93" fill="none" xmlns="http://www.w3.org/2000/svg">
<path d="M82.1182 4.10352H86.2109V23.7012H64.6025V27.8047H77.5664V32.5898H60.2793V41.0225H68.9238V49.9102H64.375V44.8955H60.0518V60.6201H55.7305V67.2295H51.4092V71.5615H47.3135V74.9775H54.3652V79.3096H43.2197V74.5234H34.8027V79.3096H30.4814V84.0947H25.9326V88.4248H30.2539V92.9824H21.6084V75.4346H17.2871V71.1045H13.1934V66.3193H9.09863V62.2158H4.54883V57.8857H0V32.8184H4.54883V41.249H8.41699V45.3525H12.7383V49.9102H21.6084V45.3525H25.9326V40.7949H32.5293V36.2373H39.3516V32.3623H43.1055V4.33203H46.8594V0H82.1182V4.10352ZM51.4561 6.31934V12.1875H57.3242V6.31934H51.4561Z" fill="#F4F1F1"/>
</svg>
