<svg width="259" height="258" viewBox="0 0 259 258" fill="none" xmlns="http://www.w3.org/2000/svg">
<g clip-path="url(#clip0_1118_467)">
<path d="M226.686 0V8.06313C226.686 56.4217 227.055 104.836 226.686 153.189C223.999 153.21 221.293 153.174 218.607 153.189C218.577 155.87 218.652 158.577 218.607 161.253C215.921 161.298 213.209 161.222 210.528 161.253C210.498 163.934 210.574 166.64 210.528 169.316C148.611 169.785 86.6535 168.962 24.7363 169.316C24.7363 123.638 24.7363 77.9301 24.7363 32.2525C27.4224 32.2424 30.1288 32.2778 32.8149 32.2525C32.4861 75.2391 33.0628 118.266 32.8149 161.258C35.501 161.268 38.2074 161.232 40.8935 161.258C94.7321 161.667 148.616 160.95 202.455 161.258C202.607 118.266 202.247 75.2441 202.455 32.2525C202.47 29.5715 202.435 26.8704 202.455 24.1894C205.141 24.1692 207.847 24.2045 210.533 24.1894C210.533 21.5084 210.523 18.8072 210.533 16.1263C213.22 16.0808 215.926 16.1566 218.612 16.1263V8.06313C215.926 8.04799 213.22 8.08333 210.533 8.06313C159.421 7.66932 108.163 7.67436 57.0506 8.06313C57.0456 10.7441 57.0506 13.4453 57.0506 16.1263C54.3645 16.1566 51.6531 16.0808 48.972 16.1263V24.1894C46.2859 24.2045 43.5796 24.1692 40.8935 24.1894C40.8732 26.8704 40.9086 29.5715 40.8935 32.2525C38.2074 32.2677 35.501 32.2323 32.8149 32.2525C32.8351 29.5715 32.7997 26.8704 32.8149 24.1894C35.501 24.1793 38.2074 24.2146 40.8935 24.1894C40.9137 21.5084 40.8783 18.8072 40.8935 16.1263C43.5796 16.096 46.291 16.1717 48.972 16.1263C48.972 13.4453 48.972 10.7441 48.972 8.06313C51.6582 8.05303 54.3645 8.08838 57.0506 8.06313C57.0557 5.38215 57.0506 2.68098 57.0506 0H226.691L226.686 0Z" fill="#F4F1F1" fill-opacity="0.35"/>
<path d="M234.764 153.189C240.142 153.199 245.544 153.184 250.921 153.189C250.932 155.87 250.896 158.572 250.921 161.253C251.083 182.731 251.083 204.279 250.921 225.753C248.235 225.758 245.529 225.753 242.843 225.753C242.812 228.434 242.888 231.14 242.843 233.816C240.157 233.861 237.445 233.785 234.764 233.816C234.734 236.497 234.81 239.203 234.764 241.879C232.078 241.924 229.367 241.848 226.686 241.879C226.655 244.56 226.731 247.266 226.686 249.942C154.049 250.492 81.2208 250.497 8.57937 249.942C5.89326 249.922 3.18691 249.957 0.500801 249.942L0 246.413V186.952C0.61209 186.336 0.116348 185.548 1.22924 185.396C3.26785 185.124 6.35359 185.472 8.58443 185.437C8.44279 204.239 8.69572 223.072 8.58443 241.879C11.2705 241.889 13.9769 241.854 16.663 241.879C83.9625 242.389 151.313 241.495 218.617 241.879C218.668 225.763 218.536 209.616 218.617 193.5C218.632 190.819 218.597 188.118 218.617 185.437C221.303 185.417 224.01 185.452 226.696 185.437C226.726 182.756 226.65 180.05 226.696 177.374C229.382 177.328 232.093 177.404 234.774 177.374C234.805 174.693 234.729 171.987 234.774 169.311C237.46 169.265 240.167 169.341 242.853 169.311V161.247H234.774C234.744 163.928 234.82 166.63 234.774 169.311C232.088 169.356 229.377 169.28 226.696 169.311C226.665 171.992 226.741 174.698 226.696 177.374C224.01 177.419 221.298 177.343 218.617 177.374C218.607 180.055 218.643 182.756 218.617 185.437C148.642 185.967 78.5549 184.392 8.58949 185.437C8.60973 182.756 8.57432 180.055 8.58949 177.374C13.9668 177.359 19.3694 177.404 24.7466 177.374C86.6689 177.071 148.621 177.601 210.544 177.374C210.574 174.693 210.498 171.987 210.544 169.311C213.23 169.29 215.936 169.326 218.622 169.311C218.653 166.63 218.577 163.923 218.622 161.247C221.308 161.202 224.02 161.278 226.701 161.247C226.711 158.566 226.676 155.865 226.701 153.184C229.387 153.164 232.093 153.184 234.779 153.184L234.764 153.189Z" fill="#F4F1F1" fill-opacity="0.35"/>
<path d="M259 161.253V225.753C256.313 225.753 253.607 225.747 250.921 225.753C250.901 228.434 250.936 231.135 250.921 233.816C248.235 233.846 245.523 233.77 242.842 233.816C242.797 236.497 242.873 239.203 242.842 241.879C240.156 241.909 237.445 241.833 234.764 241.879C234.718 244.56 234.794 247.266 234.764 249.942C232.078 249.952 229.371 249.917 226.685 249.942C226.64 252.623 226.716 255.324 226.685 258.005H8.58398V249.942C81.2203 250.497 154.049 250.492 226.69 249.942C226.736 247.261 226.66 244.555 226.69 241.879C229.376 241.849 232.088 241.924 234.769 241.879C234.814 239.198 234.739 236.492 234.769 233.816C237.455 233.785 240.166 233.861 242.847 233.816C242.893 231.135 242.817 228.428 242.847 225.753C245.534 225.753 248.24 225.763 250.926 225.753C251.088 204.274 251.088 182.726 250.926 161.253H259.005H259Z" fill="#F4F1F1" fill-opacity="0.1"/>
<path d="M202.455 32.2525C202.248 75.2441 202.607 118.266 202.455 161.258C148.617 160.95 94.7324 161.661 40.8938 161.258C41.0506 118.266 40.6864 75.2441 40.8938 32.2576C94.7375 32.0001 148.612 32.4494 202.455 32.2576V32.2525ZM48.9724 48.3737C48.7498 77.9099 48.8308 107.522 48.9724 137.063C48.9876 139.744 48.9522 142.445 48.9724 145.126C48.9926 147.807 48.9572 150.508 48.9724 153.189H194.377V40.3106C191.691 40.2955 188.984 40.3308 186.298 40.3106C140.538 39.9572 94.7324 40.5782 48.9724 40.3106C48.9623 42.9916 48.9977 45.6928 48.9724 48.3737Z" fill="#F4F1F1" fill-opacity="0.6"/>
<path d="M210.534 8.06313C210.534 10.7441 210.539 13.4453 210.534 16.1263C207.848 16.1717 205.137 16.096 202.455 16.1263C202.445 18.8072 202.481 21.5084 202.455 24.1894C151.308 24.5782 100.12 23.947 48.9727 24.1894V16.1263C51.6588 16.0808 54.3702 16.1565 57.0512 16.1263C57.0512 13.4453 57.0411 10.7441 57.0512 8.06313C108.163 7.67436 159.422 7.66931 210.534 8.06313Z" fill="#F4F1F1" fill-opacity="0.6"/>
<path d="M226.686 8.06313H234.764V153.189C232.078 153.189 229.372 153.169 226.686 153.189C227.055 104.836 226.686 56.4217 226.686 8.06313Z" fill="#F4F1F1" fill-opacity="0.1"/>
<path d="M218.611 161.253C218.566 163.934 218.642 166.64 218.611 169.316C215.925 169.326 213.219 169.29 210.533 169.316C210.578 166.635 210.502 163.928 210.533 161.253C213.219 161.222 215.93 161.298 218.611 161.253Z" fill="#F4F1F1" fill-opacity="0.1"/>
<path d="M210.533 169.316C210.488 171.997 210.564 174.703 210.533 177.379C148.611 177.601 86.6586 177.071 24.7363 177.379V169.316C86.6535 168.962 148.616 169.785 210.528 169.316H210.533Z" fill="#F4F1F1" fill-opacity="0.1"/>
<path d="M226.686 153.189C226.665 155.87 226.701 158.572 226.686 161.253C223.999 161.283 221.288 161.207 218.607 161.253C218.653 158.572 218.577 155.865 218.607 153.189C221.293 153.179 223.999 153.215 226.686 153.189Z" fill="#F4F1F1" fill-opacity="0.1"/>
<path d="M210.534 8.06312C213.22 8.08332 215.926 8.04798 218.612 8.06312V16.1263C215.926 16.1565 213.22 16.0808 210.534 16.1263C210.529 18.8072 210.534 21.5084 210.534 24.1894C207.847 24.1995 205.141 24.1641 202.455 24.1894C202.435 26.8704 202.47 29.5715 202.455 32.2525C148.611 32.4444 94.7373 31.995 40.8936 32.2525C40.6862 75.2441 41.0504 118.261 40.8936 161.253C38.2075 161.232 35.5012 161.268 32.8151 161.253C33.0629 118.266 32.4913 75.2391 32.8151 32.2475C35.5012 32.2273 38.2075 32.2626 40.8936 32.2475C40.9088 29.5665 40.8734 26.8653 40.8936 24.1843C43.5797 24.1641 46.2861 24.1995 48.9722 24.1843C100.12 23.942 151.308 24.5731 202.455 24.1843C202.475 21.5034 202.44 18.8022 202.455 16.1212C205.141 16.0909 207.853 16.1666 210.534 16.1212C210.539 13.4402 210.534 10.7391 210.534 8.05807V8.06312Z" fill="#F4F1F1"/>
<path d="M218.612 193.5C218.537 209.616 218.668 225.763 218.612 241.879C151.308 241.49 83.9628 242.384 16.6582 241.879V193.5H218.607H218.612ZM121.675 209.626C121.675 212.307 121.675 215.008 121.675 217.689C137.822 217.669 153.999 217.71 170.146 217.689V225.753H178.225V217.689C186.293 217.669 194.392 217.699 202.46 217.689V209.626C202.46 206.945 202.46 204.244 202.46 201.563H121.68C121.68 204.244 121.68 206.945 121.68 209.626H121.675ZM32.8154 217.689V225.753H48.9725C49.3772 225.753 48.9725 218.517 48.9725 217.689V209.626H32.8154V217.689Z" fill="#F4F1F1" fill-opacity="0.6"/>
<path d="M218.612 185.437C218.592 188.118 218.627 190.819 218.612 193.5H16.6581V241.874C13.972 241.854 11.2656 241.889 8.5795 241.874C8.69079 223.072 8.43786 204.234 8.5795 185.432C78.5449 184.387 148.632 185.962 218.607 185.432L218.612 185.437Z" fill="#F4F1F1"/>
<path d="M234.765 169.316C234.81 166.635 234.734 163.934 234.765 161.253H242.843V169.316C240.157 169.346 237.451 169.27 234.765 169.316C234.719 171.997 234.795 174.703 234.765 177.379C232.078 177.409 229.367 177.333 226.686 177.379C226.64 180.06 226.716 182.766 226.686 185.442C224 185.452 221.294 185.417 218.607 185.442C218.628 182.761 218.592 180.06 218.607 177.379C221.294 177.349 224.005 177.424 226.686 177.379C226.732 174.698 226.656 171.992 226.686 169.316C229.372 169.285 232.084 169.361 234.765 169.316Z" fill="#F4F1F1" fill-opacity="0.6"/>
<path d="M186.298 40.3106C188.984 40.3308 191.691 40.2955 194.377 40.3106V153.184H48.9727C48.9575 150.503 48.9929 147.802 48.9727 145.121H186.298C186.298 112.884 186.298 80.6111 186.298 48.3687V40.3056V40.3106Z" fill="#F4F1F1"/>
<path d="M186.297 48.3737C186.297 80.6162 186.297 112.884 186.297 145.126H48.9713C48.951 142.445 48.9864 139.744 48.9713 137.063H57.0498C97.4326 137.063 137.841 137.063 178.223 137.063C178.223 110.198 178.223 83.3022 178.223 56.4369V48.3737H186.302H186.297Z" fill="#F4F1F1" fill-opacity="0.3"/>
<path d="M178.218 48.3737V56.4369H57.0449V137.063H48.9664C48.8247 107.522 48.7438 77.915 48.9664 48.3737H178.213H178.218Z" fill="#F4F1F1" fill-opacity="0.1"/>
<path d="M186.298 40.3106V48.3737H48.9727C48.9929 45.6928 48.9575 42.9916 48.9727 40.3106C94.7378 40.5782 140.538 39.9622 186.298 40.3106Z" fill="#F4F1F1" fill-opacity="0.35"/>
<path d="M121.674 209.626C121.674 206.945 121.674 204.244 121.674 201.563H202.455C202.455 204.244 202.455 206.945 202.455 209.626H121.674Z" fill="#F4F1F1" fill-opacity="0.35"/>
<path d="M202.456 209.626V217.689C194.387 217.7 186.293 217.669 178.22 217.689C175.534 217.694 172.827 217.689 170.141 217.689C153.994 217.71 137.817 217.669 121.67 217.689C121.67 215.008 121.67 212.307 121.67 209.626H202.451H202.456Z" fill="#F4F1F1" fill-opacity="0.1"/>
<path d="M48.9716 209.626H32.8145V217.689H48.9716V209.626Z" fill="#F4F1F1"/>
<path d="M48.9716 217.689C48.9716 218.517 49.3763 225.753 48.9716 225.753H32.8145V217.689H48.9716Z" fill="#F4F1F1"/>
<path d="M178.219 217.689V225.753H170.141V217.689C172.827 217.689 175.533 217.694 178.219 217.689Z" fill="#F4F1F1" fill-opacity="0.35"/>
</g>
<defs>
<clipPath id="clip0_1118_467">
<rect width="259" height="258" fill="white"/>
</clipPath>
</defs>
</svg>
