<svg width="70" height="19" viewBox="0 0 70 19" fill="none" xmlns="http://www.w3.org/2000/svg">
<path d="M7.5 7.75V4H11.25V7.75H7.5ZM0 19V0.25H7.5V4H3.75V7.75H7.5V11.5H3.75V19H0ZM14.5 19V15.25H18.25V4H14.5V0.25H25.75V4H22V15.25H25.75V19H14.5ZM29 19V11.5H32.75V19H29ZM36.5 19V11.5H40.25V19H36.5ZM32.75 11.5V7.75H36.5V11.5H32.75ZM29 7.75V0.25H32.75V7.75H29ZM36.5 7.75V0.25H40.25V7.75H36.5ZM43.5 19V4H47.25V7.75H51V4H54.75V19H51V11.5H47.25V19H43.5ZM47.25 4V0.25H51V4H47.25ZM65.5 19V11.5H69.25V19H65.5ZM65.5 7.75V4H69.25V7.75H65.5ZM58 19V0.25H65.5V4H61.75V7.75H65.5V11.5H61.75V19H58Z" fill="#F4F1F1" fill-opacity="0.95"/>
</svg>
