<svg width="259" height="189" viewBox="0 0 259 189" fill="none" xmlns="http://www.w3.org/2000/svg">
<path fill-rule="evenodd" clip-rule="evenodd" d="M164.773 70.9944V94.51H188.289V70.9944H164.773ZM70.7109 70.9944V94.51H94.2266V70.9944H70.7109ZM70.7109 165.057H117.742V188.573H70.7109V165.057ZM188.289 165.057V188.573H141.258V165.057H188.289ZM188.289 23.9631V0.44751H211.805V23.9631H188.289ZM70.7109 23.9631H94.2266V47.4788H164.773V23.9631H188.289V47.4788H211.805V70.9944H235.32V94.51H258.836V165.057H235.32V118.026H211.805V165.057H188.289V141.541H70.7109V165.057H47.1953V118.026H23.6797V165.057H0.164062V94.51H23.6797V70.9944H47.1953V47.4788H70.7109V23.9631ZM47.1953 0.44751H70.7109V23.9631H47.1953V0.44751Z" fill="#f4f1f1"/>
</svg>
