<svg width="390" height="434" viewBox="0 0 390 434" fill="none" xmlns="http://www.w3.org/2000/svg">
<g clip-path="url(#clip0_1366_509)">
<path d="M167.67 0L167.64 126.81L167.3 127.96C159.25 128.61 151.07 128.46 143.01 128C142.88 127.33 143.62 127.13 143.68 126.49C143.73 125.94 143.33 125.21 143.33 124.51C143.28 84.5 143.39 44.49 143.36 4.48L143.01 0H167.68L167.67 0Z" fill="#F4F1F1"/>
<path d="M33.6701 0V127.17L33.3501 127.85C25.4601 128.87 17.2901 128.27 9.33008 128V0H33.6701Z" fill="#F4F1F1"/>
<path d="M346.33 0V127.17L346.01 127.85C338.35 128.82 330.27 128.35 322.54 127.96L322.14 127.69L321.98 3.82L322.33 0L346.33 0Z" fill="#F4F1F1"/>
<path d="M212.33 0L212.66 128C204.7 128.5 196.62 128.54 188.66 128L188.31 124.51V0H212.32H212.33Z" fill="#F4F1F1"/>
<path d="M78.3301 0V128C70.3701 128.5 62.2901 128.54 54.3301 128V0H78.3301Z" fill="#F4F1F1"/>
<path d="M123 0V127.17L122.68 127.85C121.85 128 121 128.25 120.16 128.33C115.53 128.76 108.23 128.59 103.48 128.35C102.1 128.28 100.77 127.87 99.3705 127.96L98.9805 126.19L99.0005 0.01H123V0Z" fill="#F4F1F1"/>
<path d="M257 0V128C249.16 128.53 241.18 128.52 233.33 128V0H257Z" fill="#F4F1F1"/>
<path d="M301.67 0L301.64 127.97C294.12 128.64 286.42 128.45 278.88 127.95L278.33 127.16V0H301.66H301.67Z" fill="#F4F1F1"/>
<path d="M389.67 0L389.68 127.18L389.35 128.19L367 128V0H389.67Z" fill="#F4F1F1"/>
<path d="M390 153V281H381V153C383.95 153.03 387.07 152.09 390 153Z" fill="#F4F1F1"/>
<path d="M192.67 153H207.12C207.89 153.26 207.67 160.56 207.68 161.85C208.05 200.6 207.36 239.66 207.68 278.52L207.33 281.01H192.66V153.01L192.67 153Z" fill="#F4F1F1"/>
<path d="M127 153H112.33V281H127V153Z" fill="#F4F1F1"/>
<path d="M234.67 281H220V153C223.68 152.76 227.82 152.36 231.51 152.65C232.5 152.73 233.95 152.86 234.66 153.5V281H234.67Z" fill="#F4F1F1"/>
<path d="M341.67 281H327V153.83C327 153.74 327.34 153.04 327.56 152.99C332.05 152.87 337.52 151.81 341.66 153.5V281H341.67Z" fill="#F4F1F1"/>
<path d="M153.67 281H139.34V153C143.9 152.9 149.45 151.79 153.67 153.5V281Z" fill="#F4F1F1"/>
<path d="M261.33 281H246.66V153.5L247.49 153C249.31 153.27 251.08 152.7 252.81 152.65C255.08 152.59 258.28 152.61 260.49 153C260.87 153.07 261.11 153.17 261.32 153.5V281H261.33Z" fill="#F4F1F1"/>
<path d="M314.67 281H300V153C303.41 153.27 306.78 152.49 310.18 152.65C311.45 152.71 313.7 152.92 314.67 153.5V281Z" fill="#F4F1F1"/>
<path d="M368.33 153V281H353.66V153.5C355.77 152.35 358.73 153.48 361.15 152.65L368.33 153Z" fill="#F4F1F1"/>
<path d="M73.67 153V281H59L59.31 153.2C59.56 152.27 71.97 152.61 73.66 153H73.67Z" fill="#F4F1F1"/>
<path d="M46.67 281H32V153C35.79 152.81 40.04 152.32 43.83 152.67C44.46 152.73 46.48 152.97 46.65 153.54L46.67 281Z" fill="#F4F1F1"/>
<path d="M288.33 153V281H274L273.67 153H288.33Z" fill="#F4F1F1"/>
<path d="M19.6601 153H5.33008V281H19.6601V153Z" fill="#F4F1F1"/>
<path d="M180.66 153H166.33V281H180.66V153Z" fill="#F4F1F1"/>
<path d="M99.9999 153H85.6699V281H99.9999V153Z" fill="#F4F1F1"/>
<path d="M263.67 305.33V433.33H258V305.83C258 304.6 262.76 304.9 263.67 305.33Z" fill="#F4F1F1"/>
<path d="M134.67 305.33V433.33H129V305.33C130.85 304.74 132.8 304.95 134.67 305.33Z" fill="#F4F1F1"/>
<path d="M318.33 305.33V433.33H313.33V305.33C315.02 304.75 316.63 304.98 318.33 305.33Z" fill="#F4F1F1"/>
<path d="M171.33 305.33V433.33H166.33V305.33C168.03 304.98 169.64 304.75 171.33 305.33Z" fill="#F4F1F1"/>
<path d="M79.3301 433.33H74.3301V305.83C75.5501 304.97 78.1501 304.49 79.3301 305.5V433.33Z" fill="#F4F1F1"/>
<path d="M373.33 305.33V433.33H368.33V305.33C370.1 305.04 371.56 304.82 373.33 305.33Z" fill="#F4F1F1"/>
<path d="M244.67 433.33H239.67V305.33C241.38 305.22 243.27 304.34 244.67 305.83V433.33Z" fill="#F4F1F1"/>
<path d="M6 433.33H1V307.82L1.54 305.3C2.16 304.85 5.39 304.69 6 305.5V433.33Z" fill="#F4F1F1"/>
<path d="M180.33 305.33V433.33H175.33V305.83C176.71 304.8 178.71 304.81 180.33 305.33Z" fill="#F4F1F1"/>
<path d="M61 305.33V433.33H56L56.19 305.29C57.74 304.79 59.44 304.87 61 305.33Z" fill="#F4F1F1"/>
<path d="M143.67 305.33V433.33H138.67V305.83C140.1 304.71 141.99 304.95 143.67 305.33Z" fill="#F4F1F1"/>
<path d="M115.67 433.33H110.67V305.83C112.05 304.88 114.38 304.48 115.67 305.83V433.33Z" fill="#F4F1F1"/>
<path d="M355 305.33V433.33H350V305.83C351.41 304.83 353.36 304.93 355 305.33Z" fill="#F4F1F1"/>
<path d="M336.67 433.33H331.67V305.83C333.01 305 335.43 304.46 336.67 305.83V433.33Z" fill="#F4F1F1"/>
<path d="M226.33 305.33V433.33H221.33V308.48L221.68 305.35C223.3 305.11 224.73 304.71 226.33 305.33Z" fill="#F4F1F1"/>
<path d="M208 305.33V433.33H203V305.83C204.26 304.93 206.46 305.19 208 305.33Z" fill="#F4F1F1"/>
<path d="M300 433.33H295V307.16C295 306.84 295.27 306.15 295.15 305.66C295.67 304.77 299.9 304.37 300.01 306.18V433.33H300Z" fill="#F4F1F1"/>
<path d="M345.67 433.33H340.67V305.83C341.78 305.01 344.6 305.02 345.67 305.83V433.33Z" fill="#F4F1F1"/>
<path d="M106.33 433.33H101.33V305.83C102.44 305.01 105.26 305.02 106.33 305.83V433.33Z" fill="#F4F1F1"/>
<path d="M253.67 305.33V433.33H248.67L248.72 305.86C248.97 304.85 252.7 305.51 253.67 305.33Z" fill="#F4F1F1"/>
<path d="M273 433.33H268V305.83C274.69 303.03 272.66 307.17 272.64 311.16C272.64 312.35 273 313.34 273.02 314.48C273.48 354.08 272.64 393.73 273 433.33Z" fill="#F4F1F1"/>
<path d="M124.67 433.33H119.67V305.83C120.23 305.02 124.19 305.16 124.53 305.64L124.67 433.33Z" fill="#F4F1F1"/>
<path d="M70 305.33V433.33H65V310.82C65.64 306.67 64.24 303.8 70 305.33Z" fill="#F4F1F1"/>
<path d="M189.67 433.33H184.67L184.65 305.53C184.81 304.93 189.67 304.56 189.67 305.83V433.33Z" fill="#F4F1F1"/>
<path d="M217 305.33V433.33H212.33C211.84 410.33 211.91 387.2 211.98 364.15C212.03 347.83 212.32 331.52 211.98 315.18C211.95 313.88 211.84 306.08 212.14 305.65L216.99 305.34L217 305.33Z" fill="#F4F1F1"/>
<path d="M97.6697 433.33H92.9997L93.0197 312.81C92.8597 311.47 92.1697 306.2 92.9997 305.49C93.8297 304.78 97.6697 304.7 97.6697 305.83V433.33Z" fill="#F4F1F1"/>
<path d="M153 433.33H148.33L148.35 311.48L148.16 305.66C148.66 304.81 152.28 304.61 153 305.5V433.33Z" fill="#F4F1F1"/>
<path d="M309 433.33H304.33C303.88 393.73 304.93 354.08 304.35 314.48C304.32 312.42 304.29 310.91 304.33 308.83C304.35 308.01 303.44 306.1 304.32 305.48C305.05 304.96 308.39 304.67 309 305.83V433.33Z" fill="#F4F1F1"/>
<path d="M24.3303 305.33V433.33H19.6603L19.6803 311.15C19.6303 309.94 18.7703 306.25 19.6603 305.5C21.1603 304.8 22.7803 304.85 24.3303 305.34V305.33Z" fill="#F4F1F1"/>
<path d="M42.6702 305.33V433.33H38.0002L37.6602 305.33C39.3502 304.97 40.9802 304.75 42.6602 305.33H42.6702Z" fill="#F4F1F1"/>
<path d="M282 305.33V433.33H277.33L276.98 306.17C277.14 304.78 280.86 304.82 282 305.33Z" fill="#F4F1F1"/>
<path d="M364 305.33V433.33H359.33L359.35 311.15L359.15 305.65L364 305.33Z" fill="#F4F1F1"/>
<path d="M33.3297 305.33V433.33H28.6597L28.3197 306.16C28.2697 304.84 33.3297 305.01 33.3297 305.33Z" fill="#F4F1F1"/>
<path d="M198.67 305.33V433.33H194V305.33C195.67 305.22 196.99 304.78 198.67 305.33Z" fill="#F4F1F1"/>
<path d="M15.0001 305.33V433.33H10.3301V305.33C12.0001 305.22 13.3201 304.78 15.0001 305.33Z" fill="#F4F1F1"/>
<path d="M382.33 433.33H377.66L377.68 310.81C377.51 309.64 376.83 305.84 378.21 305.37C378.96 305.12 381.74 305.13 382.33 305.82V433.32V433.33Z" fill="#F4F1F1"/>
<path d="M291 305.33V433.33H286.33V305.33C288 305.54 289.41 304.62 291 305.33Z" fill="#F4F1F1"/>
<path d="M162 433.33H157.33V306.16C157.33 306.08 157.06 305.96 157.07 305.83L157.54 305.37C158.35 305.43 162 304.45 162 305.83V433.33Z" fill="#F4F1F1"/>
<path d="M51.67 305.33V433.33H47V305.83L47.56 305.39C49.03 305.2 50.21 304.88 51.66 305.33H51.67Z" fill="#F4F1F1"/>
<path d="M88.3302 305.33V433.33H83.6602V305.83C84.8102 304.81 86.8502 305.54 88.3302 305.33Z" fill="#F4F1F1"/>
<path d="M327.33 433.33H322.66V305.33C324.14 305.54 326.17 304.81 327.33 305.83V433.33Z" fill="#F4F1F1"/>
<path d="M235.33 433.33H230.66V305.83C231.68 305.02 234.34 305.03 235.33 305.83V433.33Z" fill="#F4F1F1"/>
<path d="M389.67 305.33V433.33H386.67V305.83C387.38 304.96 388.66 305.42 389.67 305.33Z" fill="#F4F1F1"/>
</g>
<defs>
<clipPath id="clip0_1366_509">
<rect width="390" height="433.67" fill="white"/>
</clipPath>
</defs>
</svg>
